# xmcd CD database file generated by OrangeCD 6.3
#
# Track frame offsets:
#	150
#	13974
#	30237
#	47095
#	60674
#	78512
#	94062
#	108181
#	123635
#	140505
#	156392
#	169373
#	187080
#	198572
#	216406
#	235468
#	254944
#	268391
#	280065
#	295015
#
# Disc length: 4211 seconds
#
# Revision: 0
# Processed by: cddbd v1.5.2PL0 Copyright (c) Steve Scherf et al.
# Submitted via: OrangeCD 6.3
#
DISCID=3f107114
DTITLE=Dolly Parton - Heartbreak Express (1982) - White Limozeen (1989)
DYEAR=1900
DGENRE=Country
TTITLE0=Heartbreak Express
TTITLE1=Single Women
TTITLE2=My Blue Ridge Mountain Home
TTITLE3=As Much As Always
TTITLE4=Do I Ever Cross Your Mind
TTITLE5=Release Me
TTITLE6=Barbara On My Mind
TTITLE7=Act Like A Fool
TTITLE8=Prime Of Our Love
TTITLE9=Hollywood Potters
TTITLE10=Time For Me To Fly
TTITLE11=Yellow Roses
TTITLE12=Why'd You Come In Here Lookin' Like That
TTITLE13=Slow Healing Heart
TTITLE14=What Is It My Love
TTITLE15=White Limozeen
TTITLE16=Wait 'til I Get You Home (with Mac Davis)
TTITLE17=Take Me Back To The Country
TTITLE18=The Moon,The Stars And Me
TTITLE19=He's Alive
EXTD=
EXTT0=
EXTT1=
EXTT2=
EXTT3=
EXTT4=
EXTT5=
EXTT6=
EXTT7=
EXTT8=
EXTT9=
EXTT10=
EXTT11=
EXTT12=
EXTT13=
EXTT14=
EXTT15=
EXTT16=
EXTT17=
EXTT18=
EXTT19=
PLAYORDER=
